<?xml version="1.0" standalone="no"?>
<!DOCTYPE svg PUBLIC "-//W3C//DTD SVG 20010904//EN"
 "http://www.w3.org/TR/2001/REC-SVG-20010904/DTD/svg10.dtd">
<svg version="1.0" xmlns="http://www.w3.org/2000/svg"
 width="260.000000pt" height="260.000000pt" viewBox="0 0 260.000000 260.000000"
 preserveAspectRatio="xMidYMid meet">
<metadata>
Created by potrace 1.11, written by Peter Selinger 2001-2013
</metadata>
<g transform="translate(0.000000,260.000000) scale(0.100000,-0.100000)"
fill="#000000" stroke="none">
<path d="M86 1154 c-8 -20 13 -39 61 -54 31 -10 52 -23 60 -40 10 -19 12 -130
11 -492 -3 -527 3 -490 -84 -512 -38 -9 -50 -17 -52 -34 l-3 -22 220 0 c213 0
221 1 221 20 0 15 -12 23 -55 35 -85 25 -85 25 -85 282 l0 223 283 -2 282 -3
0 -227 c0 -258 2 -251 -81 -272 -38 -9 -50 -17 -52 -34 l-3 -22 220 0 c186 0
221 2 221 14 0 19 -13 27 -70 46 -28 10 -49 24 -57 40 -18 36 -18 924 0 960 8
17 28 30 60 40 48 15 69 34 61 54 -6 16 -426 14 -432 -3 -7 -20 16 -38 62 -50
71 -18 71 -18 71 -255 l0 -211 -282 -3 -283 -2 0 202 c0 238 3 246 75 269 40
12 51 20 53 40 l3 24 -210 0 c-143 0 -212 -4 -215 -11z"/>
<path d="M1422 1141 c2 -20 12 -27 51 -37 94 -24 87 18 87 -524 0 -542 7 -500
-87 -524 -37 -9 -49 -17 -51 -34 l-3 -22 425 0 c396 0 425 1 430 17 2 10 8 43
11 73 4 30 13 82 21 114 15 67 12 76 -21 76 -18 0 -27 -9 -40 -42 -26 -67 -61
-112 -108 -139 -38 -21 -56 -24 -187 -27 -116 -3 -153 -1 -183 11 l-37 16 0
480 0 480 22 15 c12 9 48 21 79 27 55 11 78 31 60 55 -3 5 -111 9 -239 9
l-233 0 3 -24z"/>
</g>
</svg>
